REM DIRINDEX 1\2,1\3,1\4,1\5
REM DIRNAME "folder01","folder02","folder03","folder04","folder05"
TITLE ""
FILE "P1Q_t_0601-0609.mp3" MP3
  TRACK 01 AUDIO
    TITLE "0:"
    INDEX 01 00:00:00
  TRACK 02 AUDIO
    TITLE "2:cjc173_2737"
    INDEX 01 00:00:08
  TRACK 03 AUDIO
    TITLE "0:"
    INDEX 01 00:01:57
  TRACK 04 AUDIO
    TITLE "2:cjc173_2738"
    INDEX 01 00:02:31
  TRACK 05 AUDIO
    TITLE "0:"
    INDEX 01 00:03:38
  TRACK 06 AUDIO
    TITLE "3:cjc173_2739"
    INDEX 01 00:04:08
  TRACK 07 AUDIO
    TITLE "0:"
    INDEX 01 00:05:23
  TRACK 08 AUDIO
    TITLE "4:cjc173_2740"
    INDEX 01 00:05:45
  TRACK 09 AUDIO
    TITLE "0:"
    INDEX 01 00:07:61
  TRACK 10 AUDIO
    TITLE "5:cjc173_2741"
    INDEX 01 00:08:06
  TRACK 11 AUDIO
    TITLE "0:"
    INDEX 01 00:13:60
  TRACK 12 AUDIO
    TITLE "3:cjc173_2742"
    INDEX 01 00:14:32
  TRACK 13 AUDIO
    TITLE "0:"
    INDEX 01 00:15:45
  TRACK 14 AUDIO
    TITLE "4:cjc173_2743"
    INDEX 01 00:15:67
  TRACK 15 AUDIO
    TITLE "0:"
    INDEX 01 00:18:43
  TRACK 16 AUDIO
    TITLE "5:cjc173_2744"
    INDEX 01 00:18:63
  TRACK 17 AUDIO
    TITLE "0:"
    INDEX 01 00:23:03
  TRACK 18 AUDIO
    TITLE "3:cjc173_2745"
    INDEX 01 00:23:47
  TRACK 19 AUDIO
    TITLE "0:"
    INDEX 01 00:24:64
  TRACK 20 AUDIO
    TITLE "4:cjc173_2746"
    INDEX 01 00:25:10
  TRACK 21 AUDIO
    TITLE "0:"
    INDEX 01 00:28:48
  TRACK 22 AUDIO
    TITLE "5:cjc173_2747"
    INDEX 01 00:28:65
  TRACK 23 AUDIO
    TITLE "0:"
    INDEX 01 00:32:44
  TRACK 24 AUDIO
    TITLE "3:cjc173_2748"
    INDEX 01 00:33:14
  TRACK 25 AUDIO
    TITLE "0:"
    INDEX 01 00:34:23
  TRACK 26 AUDIO
    TITLE "4:cjc173_2749"
    INDEX 01 00:34:44
  TRACK 27 AUDIO
    TITLE "0:"
    INDEX 01 00:37:64
  TRACK 28 AUDIO
    TITLE "5:cjc173_2750"
    INDEX 01 00:38:09
  TRACK 29 AUDIO
    TITLE "0:"
    INDEX 01 00:42:13
  TRACK 30 AUDIO
    TITLE "3:cjc173_2751"
    INDEX 01 00:42:60
  TRACK 31 AUDIO
    TITLE "0:"
    INDEX 01 00:44:08
  TRACK 32 AUDIO
    TITLE "4:cjc173_2752"
    INDEX 01 00:44:29
  TRACK 33 AUDIO
    TITLE "0:"
    INDEX 01 00:45:56
  TRACK 34 AUDIO
    TITLE "5:cjc173_2753"
    INDEX 01 00:46:01
  TRACK 35 AUDIO
    TITLE "0:"
    INDEX 01 00:51:64
  TRACK 36 AUDIO
    TITLE "3:cjc173_2754"
    INDEX 01 00:52:40
  TRACK 37 AUDIO
    TITLE "0:"
    INDEX 01 00:53:67
  TRACK 38 AUDIO
    TITLE "4:cjc173_2755"
    INDEX 01 00:54:16
  TRACK 39 AUDIO
    TITLE "0:"
    INDEX 01 01:00:16
  TRACK 40 AUDIO
    TITLE "5:cjc173_2756"
    INDEX 01 01:00:36
  TRACK 41 AUDIO
    TITLE "0:"
    INDEX 01 01:06:39
  TRACK 42 AUDIO
    TITLE "3:cjc173_2757"
    INDEX 01 01:07:09
  TRACK 43 AUDIO
    TITLE "0:"
    INDEX 01 01:08:30
  TRACK 44 AUDIO
    TITLE "4:cjc173_2758"
    INDEX 01 01:08:49
  TRACK 45 AUDIO
    TITLE "0:"
    INDEX 01 01:12:47
  TRACK 46 AUDIO
    TITLE "5:cjc173_2759"
    INDEX 01 01:12:67
  TRACK 47 AUDIO
    TITLE "0:"
    INDEX 01 01:18:46
  TRACK 48 AUDIO
    TITLE "3:cjc173_2760"
    INDEX 01 01:19:18
  TRACK 49 AUDIO
    TITLE "0:"
    INDEX 01 01:20:41
  TRACK 50 AUDIO
    TITLE "4:cjc173_2761"
    INDEX 01 01:20:62
  TRACK 51 AUDIO
    TITLE "0:"
    INDEX 01 01:26:08
  TRACK 52 AUDIO
    TITLE "5:cjc173_2762"
    INDEX 01 01:26:28
  TRACK 53 AUDIO
    TITLE "0:"
    INDEX 01 01:30:14
  TRACK 54 AUDIO
    TITLE "3:cjc173_2763"
    INDEX 01 01:30:61
  TRACK 55 AUDIO
    TITLE "0:"
    INDEX 01 01:31:70
  TRACK 56 AUDIO
    TITLE "4:cjc173_2764"
    INDEX 01 01:32:14
  TRACK 57 AUDIO
    TITLE "0:"
    INDEX 01 01:36:18
  TRACK 58 AUDIO
    TITLE "5:cjc173_2765"
    INDEX 01 01:36:38
  TRACK 59 AUDIO
    TITLE "0:"
    INDEX 01 01:42:03
